<svg width="500" height="500" fill="currentColor" viewBox="0 0 500 500">
  <path d="M374.859 164.202c0 15.622-12.664 28.287-28.286 28.287-15.622 0-28.286-12.665-28.286-28.287s12.664-28.286 28.286-28.286c15.622 0 28.286 12.664 28.286 28.286zM374.859 346.573c0 15.622-12.664 28.286-28.286 28.286-15.622 0-28.286-12.664-28.286-28.286 0-15.622 12.664-28.286 28.286-28.286 15.622 0 28.286 12.664 28.286 28.286zM181.713 346.573c0 15.622-12.664 28.286-28.286 28.286-15.622 0-28.287-12.664-28.287-28.286 0-15.622 12.665-28.286 28.287-28.286s28.286 12.664 28.286 28.286zM181.713 164.202c0 15.622-12.664 28.287-28.286 28.287-15.622 0-28.287-12.665-28.287-28.287s12.665-28.286 28.287-28.286 28.286 12.664 28.286 28.286zM271.641 30.64c0 11.953-9.689 21.642-21.641 21.642-11.952 0-21.641-9.69-21.641-21.641C228.359 18.689 238.048 9 250 9c11.952 0 21.641 9.689 21.641 21.64zM271.641 469.359c0 11.952-9.689 21.641-21.641 21.641-11.952 0-21.641-9.689-21.641-21.641 0-11.952 9.689-21.641 21.641-21.641 11.952 0 21.641 9.689 21.641 21.641zM494.935 250c0 11.952-9.689 21.641-21.641 21.641-11.952 0-21.641-9.689-21.641-21.641 0-11.952 9.689-21.641 21.641-21.641 11.952 0 21.641 9.689 21.641 21.641zM48.347 250c0 11.952-9.69 21.641-21.641 21.641-11.952 0-21.64-9.689-21.64-21.641 0-11.952 9.688-21.641 21.64-21.641s21.64 9.689 21.64 21.641zM119.171 114.253c0 11.952-9.689 21.641-21.64 21.641-11.952 0-21.641-9.689-21.641-21.641 0-11.952 9.689-21.64 21.64-21.64 11.952 0 21.641 9.688 21.641 21.64zM424.11 114.253c0 11.952-9.689 21.641-21.641 21.641-11.952 0-21.641-9.689-21.641-21.641 0-11.952 9.689-21.64 21.641-21.64 11.952 0 21.641 9.688 21.641 21.64zM424.11 402.469c0 11.952-9.689 21.641-21.641 21.641-11.952 0-21.641-9.689-21.641-21.641 0-11.952 9.689-21.64 21.641-21.64 11.952 0 21.641 9.688 21.641 21.64zM119.171 402.469c0 11.952-9.689 21.641-21.64 21.641-11.952 0-21.641-9.689-21.641-21.641 0-11.952 9.689-21.64 21.64-21.64 11.952 0 21.641 9.688 21.641 21.64zM289.062 384.696c0 21.574-17.489 39.062-39.062 39.062-21.573 0-39.062-17.488-39.062-39.062 0-21.573 17.489-39.062 39.062-39.062 21.573 0 39.062 17.489 39.062 39.062zM423.758 250c0 21.573-17.489 39.062-39.062 39.062-21.573 0-39.062-17.489-39.062-39.062 0-21.573 17.489-39.062 39.062-39.062 21.573 0 39.062 17.489 39.062 39.062zM317.348 250c0 37.195-30.153 67.348-67.348 67.348S182.652 287.195 182.652 250s30.153-67.348 67.348-67.348 67.348 30.153 67.348 67.348zM289.062 115.304c0 21.573-17.489 39.062-39.062 39.062-21.573 0-39.062-17.489-39.062-39.062 0-21.573 17.489-39.062 39.062-39.062 21.573 0 39.062 17.489 39.062 39.062zM154.366 250c0 21.573-17.489 39.062-39.062 39.062-21.574 0-39.062-17.489-39.062-39.062 0-21.573 17.488-39.062 39.062-39.062 21.573 0 39.062 17.489 39.062 39.062z"/>
</svg>
