<svg width="500" height="500" fill="currentColor" viewBox="0 0 500 500">
  <path fill-rule="evenodd" d="M250 480c127.025 0 230-102.975 230-230S377.025 20 250 20 20 122.975 20 250s102.975 230 230 230zm0 20c138.071 0 250-111.929 250-250S388.071 0 250 0 0 111.929 0 250s111.929 250 250 250z" clip-rule="evenodd"/>
  <path d="M312.564 234.359a39.014 39.014 0 00-3.224 15.56 39.013 39.013 0 002.843 14.651L211.69 340.121c-6.973-4.893-15.538-7.775-24.796-7.775-23.421 0-42.408 18.452-42.408 41.213 0 22.762 18.987 41.214 42.408 41.214 23.422 0 42.409-18.452 42.409-41.214 0-5.179-.983-10.134-2.778-14.701l100.765-75.755c6.912 4.681 15.35 7.432 24.458 7.432 23.422 0 42.408-18.185 42.408-40.616 0-22.432-18.986-40.616-42.408-40.616-8.74 0-16.863 2.532-23.612 6.872l-101.611-76.391a40.078 40.078 0 002.778-14.7c0-22.762-18.987-41.214-42.409-41.214-23.421 0-42.408 18.452-42.408 41.214 0 22.761 18.987 41.213 42.408 41.213 9.258 0 17.823-2.883 24.796-7.775l100.874 75.837z"/>
</svg>
