<svg width="500" height="500" viewBox="0 0 500 500" fill="none" xmlns="http://www.w3.org/2000/svg">
<path d="M490 250C490 382.548 382.548 490 250 490C117.452 490 10 382.548 10 250C10 117.452 117.452 10 250 10C382.548 10 490 117.452 490 250Z" stroke="white" stroke-width="20"/>
<path d="M312.564 234.359C310.487 239.151 309.34 244.407 309.34 249.919C309.34 255.084 310.347 260.025 312.183 264.57L211.69 340.121C204.717 335.229 196.152 332.346 186.894 332.346C163.473 332.346 144.486 350.798 144.486 373.559C144.486 396.321 163.473 414.773 186.894 414.773C210.316 414.773 229.302 396.321 229.302 373.559C229.302 368.38 228.32 363.425 226.525 358.858L327.29 283.103C334.201 287.784 342.64 290.535 351.748 290.535C375.17 290.535 394.156 272.35 394.156 249.919C394.156 227.487 375.17 209.303 351.748 209.303C343.008 209.303 334.885 211.835 328.136 216.175L226.525 139.784C228.32 135.218 229.302 130.263 229.302 125.084C229.302 102.322 210.316 83.8701 186.894 83.8701C163.473 83.8701 144.486 102.322 144.486 125.084C144.486 147.845 163.473 166.297 186.894 166.297C196.152 166.297 204.717 163.414 211.69 158.522L312.564 234.359Z" fill="white"/>
</svg>
