<svg width="37" height="31" viewBox="-2 0 37 32" fill="none" xmlns="http://www.w3.org/2000/svg">
<path d="M15.68 32C19.904 32 23.456 30.56 26.048 28.128C29.024 25.312 30.72 21.216 30.72 16.352C30.72 15.04 30.624 14.08 30.4 13.088H15.68V19.008H24.32C24.128 20.48 23.2 22.72 21.12 24.192C19.776 25.152 18.016 25.792 15.68 25.792C11.52 25.792 8 23.008 6.752 19.168C6.432 18.176 6.24 17.12 6.24 16C6.24 14.88 6.432 13.824 6.752 12.832C8 8.96 11.52 6.176 15.68 6.176C18.624 6.176 20.608 7.488 21.728 8.576L26.144 4.16C23.456 1.568 19.904 0 15.68 0C9.536 0 4.256 3.584 1.664 8.8C0.608 10.976 0 13.44 0 16C0 18.56 0.608 20.992 1.664 23.168C4.224 28.416 9.536 32 15.68 32Z" fill="#74c6e2"/>
</svg>
