<svg width="32" height="28" viewBox="0 0 32 28" fill="none" xmlns="http://www.w3.org/2000/svg">
<path d="M15.552 7.91201L15.616 9.03201L14.464 8.90401C10.24 8.36001 6.56 6.53601 3.456 3.49601L1.92 1.96001L1.536 3.08001C0.704 5.57601 1.216 8.23201 2.976 9.99201C3.872 10.984 3.68 11.112 2.08 10.536C1.536 10.344 1.056 10.216 0.992 10.28C0.832 10.44 1.376 12.584 1.824 13.416C2.432 14.568 3.648 15.72 4.992 16.392L6.144 16.936L4.8 16.968C3.488 16.968 3.456 16.968 3.584 17.48C4.032 18.984 5.888 20.584 7.904 21.288L9.344 21.8L8.096 22.536C6.24 23.624 4.064 24.232 1.888 24.264C0.864 24.296 0 24.392 0 24.456C0 24.68 2.816 25.992 4.48 26.504C9.376 28.04 15.232 27.368 19.648 24.776C22.752 22.92 25.888 19.272 27.328 15.72C28.128 13.832 28.896 10.376 28.896 8.71201C28.896 7.65601 28.96 7.49601 30.272 6.21601C31.04 5.48001 31.744 4.64801 31.872 4.42401C32.128 3.97601 32.096 3.97601 30.912 4.36001C28.96 5.06401 28.672 4.96801 29.632 3.94401C30.368 3.17601 31.232 1.83201 31.232 1.44801C31.232 1.35201 30.88 1.48001 30.464 1.70401C30.048 1.92801 29.12 2.28001 28.448 2.47201L27.2 2.88801L26.048 2.12001C25.44 1.70401 24.544 1.22401 24.096 1.09601C22.912 0.744007 21.12 0.808007 20.064 1.19201C17.152 2.21601 15.328 4.93601 15.552 7.91201Z" fill="#74c6e2"/>
</svg>
